<svg width="35" height="40" viewBox="0 0 35 40" fill="none" xmlns="http://www.w3.org/2000/svg">
<path d="M25.87 18.05L23.16 17.45L25.27 20.46V29.78L32.49 27.16V18.05L25.87 18.05Z" fill="#4285F4"/>
<path d="M25.27 20.46L23.16 17.45L25.87 18.05L32.49 18.05V27.16L25.27 29.78V20.46Z" fill="#34A853"/>
<path d="M15.3 32.53L23.16 34.44V27.16L15.3 24.54V32.53Z" fill="#FBBC04"/>
<path d="M23.16 17.45L15.3 24.54V32.53L23.16 34.44V27.16L25.27 20.46L23.16 17.45Z" fill="#EA4335"/>
<path d="M2.5 15.3L9.12 17.45L15.3 24.54L23.16 17.45L25.87 18.05L32.49 18.05L35 15.3L17.5 0L2.5 15.3Z" fill="#4285F4"/>
<path d="M9.12 17.45L2.5 15.3L17.5 40L15.3 32.53V24.54L9.12 17.45Z" fill="#34A853"/>
<path d="M9.12 17.45L15.3 24.54V32.53L17.5 40L23.16 34.44V27.16L23.16 17.45L9.12 17.45Z" fill="#EA4335"/>
</svg>
